<svg xmlns="http://www.w3.org/2000/svg" xmlns:xlink="http://www.w3.org/1999/xlink" width="500" zoomAndPan="magnify" viewBox="0 0 375 374.999991" height="700" preserveAspectRatio="xMidYMid meet" version="1.0"><defs><g/><clipPath id="id1"><path d="M 52.691406 181 L 129 181 L 129 235 L 52.691406 235 Z M 52.691406 181 " clip-rule="nonzero"/></clipPath><clipPath id="id2"><path d="M 108 150 L 153.191406 150 L 153.191406 183 L 108 183 Z M 108 150 " clip-rule="nonzero"/></clipPath><clipPath id="id3"><path d="M 107 203 L 153.191406 203 L 153.191406 238.441406 L 107 238.441406 Z M 107 203 " clip-rule="nonzero"/></clipPath><clipPath id="id4"><path d="M 86 234 L 101 234 L 101 238.441406 L 86 238.441406 Z M 86 234 " clip-rule="nonzero"/></clipPath><clipPath id="id5"><path d="M 58 234 L 81 234 L 81 238.441406 L 58 238.441406 Z M 58 234 " clip-rule="nonzero"/></clipPath><clipPath id="id6"><path d="M 149 188 L 153.191406 188 L 153.191406 198 L 149 198 Z M 149 188 " clip-rule="nonzero"/></clipPath><clipPath id="id7"><path d="M 94 149.941406 L 104 149.941406 L 104 154 L 94 154 Z M 94 149.941406 " clip-rule="nonzero"/></clipPath></defs><g clip-path="url(#id1)"><path fill="rgb(98.81897%, 23.919678%, 23.529053%)" d="M 72.113281 213.949219 C 71.492188 213.949219 70.875 214.003906 70.261719 214.117188 C 69.648438 214.226562 69.050781 214.390625 68.46875 214.609375 C 67.886719 214.828125 67.328125 215.09375 66.792969 215.410156 C 66.257812 215.730469 65.757812 216.089844 65.285156 216.5 C 64.816406 216.90625 64.386719 217.351562 63.996094 217.835938 C 63.605469 218.316406 63.261719 218.832031 62.960938 219.378906 C 62.664062 219.921875 62.417969 220.488281 62.21875 221.078125 C 62.023438 221.667969 61.878906 222.269531 61.789062 222.886719 L 57.199219 222.886719 C 56.570312 222.886719 56.078125 222.714844 55.851562 222.417969 C 55.660156 222.128906 55.625 221.820312 55.75 221.492188 L 56.976562 213.949219 L 57.710938 210.96875 C 58.699219 208.546875 61.238281 205.011719 67.640625 205.011719 L 72.113281 205.011719 C 75.59375 205.011719 77.433594 202.054688 77.820312 201.34375 L 86.730469 189.519531 C 88.996094 186.082031 92.34375 184.15625 95.964844 184.15625 L 116.847656 184.15625 C 119.78125 184.15625 121.726562 185.3125 122.972656 187.800781 L 125.183594 192.902344 C 125.257812 193.09375 125.363281 193.257812 125.503906 193.40625 C 125.644531 193.550781 125.808594 193.664062 125.996094 193.742188 C 126.183594 193.820312 126.378906 193.859375 126.582031 193.859375 C 126.785156 193.859375 126.980469 193.820312 127.167969 193.738281 C 127.351562 193.660156 127.515625 193.546875 127.65625 193.398438 C 127.796875 193.253906 127.902344 193.085938 127.972656 192.894531 C 128.046875 192.707031 128.078125 192.511719 128.070312 192.308594 C 128.0625 192.105469 128.015625 191.914062 127.925781 191.730469 L 125.679688 186.546875 C 123.886719 182.957031 120.925781 181.175781 116.851562 181.175781 L 95.964844 181.175781 C 91.390625 181.175781 87.023438 183.660156 84.289062 187.800781 L 75.367188 199.636719 C 75.3125 199.710938 75.261719 199.789062 75.222656 199.875 C 75.222656 199.875 74.117188 202.019531 72.113281 202.019531 L 67.625 202.019531 C 59.246094 202.019531 55.214844 207.265625 54.234375 212.15625 L 52.832031 220.894531 C 52.675781 221.472656 52.652344 222.058594 52.765625 222.648438 C 52.882812 223.238281 53.121094 223.773438 53.488281 224.25 C 54.300781 225.300781 55.613281 225.878906 57.199219 225.878906 L 61.789062 225.878906 C 61.886719 226.535156 62.042969 227.175781 62.261719 227.800781 C 62.476562 228.429688 62.753906 229.03125 63.085938 229.605469 C 63.417969 230.179688 63.804688 230.714844 64.238281 231.214844 C 64.671875 231.71875 65.152344 232.171875 65.675781 232.582031 C 66.199219 232.992188 66.753906 233.347656 67.34375 233.652344 C 67.9375 233.957031 68.550781 234.199219 69.1875 234.386719 C 69.824219 234.574219 70.472656 234.699219 71.136719 234.761719 C 71.796875 234.824219 72.457031 234.820312 73.121094 234.757812 C 73.78125 234.695312 74.429688 234.570312 75.066406 234.382812 C 75.703125 234.195312 76.316406 233.949219 76.90625 233.644531 C 77.5 233.339844 78.054688 232.980469 78.574219 232.570312 C 79.097656 232.160156 79.574219 231.703125 80.011719 231.203125 C 80.445312 230.703125 80.828125 230.164062 81.160156 229.589844 C 81.492188 229.011719 81.765625 228.414062 81.984375 227.785156 C 82.199219 227.160156 82.355469 226.515625 82.449219 225.859375 C 82.542969 225.203125 82.574219 224.542969 82.542969 223.882812 C 82.511719 223.21875 82.414062 222.566406 82.257812 221.921875 C 82.101562 221.277344 81.882812 220.652344 81.609375 220.046875 C 81.332031 219.445312 81 218.875 80.617188 218.332031 C 80.230469 217.792969 79.796875 217.292969 79.316406 216.835938 C 78.835938 216.378906 78.3125 215.972656 77.753906 215.613281 C 77.195312 215.253906 76.609375 214.953125 75.992188 214.707031 C 75.375 214.460938 74.738281 214.273438 74.085938 214.148438 C 73.433594 214.023438 72.777344 213.960938 72.113281 213.960938 Z M 72.113281 231.824219 C 71.621094 231.824219 71.136719 231.777344 70.65625 231.679688 C 70.175781 231.585938 69.710938 231.445312 69.257812 231.257812 C 68.804688 231.070312 68.375 230.839844 67.964844 230.566406 C 67.558594 230.296875 67.183594 229.988281 66.835938 229.640625 C 66.488281 229.296875 66.179688 228.917969 65.90625 228.511719 C 65.632812 228.105469 65.40625 227.675781 65.21875 227.222656 C 65.03125 226.769531 64.886719 226.304688 64.792969 225.824219 C 64.695312 225.34375 64.648438 224.859375 64.648438 224.371094 C 64.648438 223.882812 64.695312 223.394531 64.792969 222.917969 C 64.886719 222.4375 65.03125 221.96875 65.21875 221.519531 C 65.40625 221.066406 65.632812 220.636719 65.90625 220.230469 C 66.179688 219.820312 66.488281 219.445312 66.835938 219.097656 C 67.183594 218.753906 67.558594 218.445312 67.964844 218.171875 C 68.375 217.902344 68.804688 217.671875 69.257812 217.484375 C 69.710938 217.296875 70.175781 217.15625 70.65625 217.058594 C 71.136719 216.964844 71.621094 216.917969 72.113281 216.917969 C 72.601562 216.917969 73.089844 216.964844 73.570312 217.058594 C 74.050781 217.15625 74.515625 217.296875 74.96875 217.484375 C 75.421875 217.671875 75.851562 217.902344 76.257812 218.171875 C 76.667969 218.445312 77.042969 218.753906 77.390625 219.097656 C 77.738281 219.445312 78.046875 219.820312 78.320312 220.230469 C 78.589844 220.636719 78.820312 221.066406 79.007812 221.519531 C 79.195312 221.96875 79.339844 222.4375 79.433594 222.917969 C 79.527344 223.394531 79.578125 223.882812 79.578125 224.371094 C 79.578125 224.859375 79.527344 225.34375 79.433594 225.824219 C 79.339844 226.304688 79.195312 226.769531 79.007812 227.222656 C 78.820312 227.675781 78.589844 228.105469 78.320312 228.511719 C 78.046875 228.917969 77.738281 229.296875 77.390625 229.640625 C 77.042969 229.988281 76.667969 230.296875 76.257812 230.566406 C 75.851562 230.839844 75.421875 231.070312 74.96875 231.257812 C 74.515625 231.445312 74.050781 231.585938 73.570312 231.679688 C 73.089844 231.777344 72.601562 231.824219 72.113281 231.824219 Z M 72.113281 231.824219 " fill-opacity="1" fill-rule="nonzero"/></g><path fill="rgb(98.81897%, 23.919678%, 23.529053%)" d="M 137.730469 201.03125 L 136.960938 201.03125 C 136.757812 201.023438 136.5625 201.054688 136.371094 201.125 C 136.179688 201.195312 136.011719 201.304688 135.863281 201.445312 C 135.71875 201.585938 135.605469 201.746094 135.523438 201.933594 C 135.445312 202.121094 135.402344 202.316406 135.402344 202.519531 C 135.402344 202.722656 135.445312 202.917969 135.523438 203.105469 C 135.605469 203.292969 135.71875 203.457031 135.863281 203.597656 C 136.011719 203.738281 136.179688 203.84375 136.371094 203.914062 C 136.5625 203.988281 136.757812 204.019531 136.960938 204.007812 L 137.730469 204.007812 C 137.925781 204.007812 138.117188 204.046875 138.300781 204.121094 C 138.484375 204.199219 138.644531 204.304688 138.785156 204.445312 C 138.925781 204.585938 139.03125 204.746094 139.109375 204.929688 C 139.183594 205.113281 139.222656 205.300781 139.222656 205.5 L 139.222656 221.398438 C 139.222656 221.59375 139.183594 221.785156 139.109375 221.964844 C 139.03125 222.148438 138.925781 222.308594 138.785156 222.449219 C 138.644531 222.589844 138.484375 222.695312 138.300781 222.773438 C 138.117188 222.847656 137.925781 222.886719 137.730469 222.886719 L 136.960938 222.886719 C 136.761719 222.882812 136.570312 222.921875 136.390625 222.996094 C 136.207031 223.074219 136.042969 223.179688 135.902344 223.320312 C 135.761719 223.460938 135.65625 223.621094 135.578125 223.804688 C 135.503906 223.988281 135.464844 224.179688 135.464844 224.375 C 135.464844 224.574219 135.503906 224.765625 135.578125 224.945312 C 135.65625 225.128906 135.761719 225.292969 135.902344 225.429688 C 136.042969 225.570312 136.207031 225.679688 136.390625 225.753906 C 136.570312 225.828125 136.761719 225.867188 136.960938 225.867188 L 137.730469 225.867188 C 138.023438 225.867188 138.3125 225.835938 138.601562 225.78125 C 138.890625 225.722656 139.171875 225.636719 139.441406 225.523438 C 139.710938 225.414062 139.96875 225.273438 140.214844 225.113281 C 140.457031 224.949219 140.683594 224.761719 140.894531 224.554688 C 141.101562 224.347656 141.285156 224.121094 141.449219 223.878906 C 141.613281 223.636719 141.75 223.378906 141.863281 223.105469 C 141.976562 222.835938 142.0625 222.554688 142.117188 222.269531 C 142.175781 221.980469 142.203125 221.691406 142.207031 221.398438 L 142.207031 205.5 C 142.203125 205.207031 142.175781 204.917969 142.117188 204.628906 C 142.0625 204.339844 141.976562 204.0625 141.863281 203.789062 C 141.75 203.519531 141.613281 203.261719 141.449219 203.019531 C 141.285156 202.773438 141.101562 202.546875 140.894531 202.339844 C 140.6875 202.132812 140.460938 201.949219 140.214844 201.785156 C 139.972656 201.621094 139.714844 201.484375 139.441406 201.371094 C 139.171875 201.257812 138.890625 201.175781 138.601562 201.117188 C 138.3125 201.058594 138.023438 201.03125 137.730469 201.03125 Z M 137.730469 201.03125 " fill-opacity="1" fill-rule="nonzero"/><path fill="rgb(98.81897%, 23.919678%, 23.529053%)" d="M 122.816406 213.949219 C 122.191406 213.949219 121.578125 214.003906 120.964844 214.117188 C 120.351562 214.226562 119.753906 214.390625 119.171875 214.609375 C 118.589844 214.828125 118.03125 215.09375 117.496094 215.410156 C 116.960938 215.730469 116.457031 216.089844 115.988281 216.5 C 115.519531 216.90625 115.089844 217.351562 114.699219 217.835938 C 114.308594 218.316406 113.964844 218.832031 113.664062 219.378906 C 113.367188 219.921875 113.117188 220.488281 112.921875 221.078125 C 112.726562 221.667969 112.582031 222.269531 112.492188 222.886719 L 87.03125 222.886719 C 86.832031 222.882812 86.640625 222.921875 86.457031 222.996094 C 86.273438 223.074219 86.113281 223.179688 85.972656 223.320312 C 85.832031 223.460938 85.722656 223.621094 85.648438 223.804688 C 85.570312 223.988281 85.535156 224.179688 85.535156 224.375 C 85.535156 224.574219 85.570312 224.765625 85.648438 224.945312 C 85.722656 225.128906 85.832031 225.292969 85.972656 225.429688 C 86.113281 225.570312 86.273438 225.679688 86.457031 225.753906 C 86.640625 225.828125 86.832031 225.867188 87.03125 225.867188 L 112.492188 225.867188 C 112.589844 226.523438 112.746094 227.164062 112.964844 227.792969 C 113.179688 228.417969 113.457031 229.019531 113.789062 229.59375 C 114.121094 230.167969 114.507812 230.703125 114.941406 231.203125 C 115.378906 231.707031 115.855469 232.160156 116.378906 232.570312 C 116.902344 232.980469 117.457031 233.335938 118.050781 233.640625 C 118.640625 233.941406 119.253906 234.1875 119.890625 234.375 C 120.527344 234.558594 121.179688 234.683594 121.839844 234.746094 C 122.5 234.808594 123.160156 234.808594 123.824219 234.746094 C 124.484375 234.679688 125.132812 234.554688 125.769531 234.367188 C 126.40625 234.179688 127.019531 233.933594 127.613281 233.628906 C 128.203125 233.324219 128.757812 232.96875 129.277344 232.558594 C 129.800781 232.144531 130.277344 231.691406 130.714844 231.1875 C 131.148438 230.6875 131.53125 230.148438 131.863281 229.574219 C 132.195312 229 132.46875 228.398438 132.683594 227.769531 C 132.902344 227.144531 133.058594 226.503906 133.152344 225.84375 C 133.246094 225.1875 133.277344 224.527344 133.242188 223.867188 C 133.210938 223.203125 133.117188 222.550781 132.960938 221.90625 C 132.804688 221.261719 132.585938 220.636719 132.308594 220.035156 C 132.035156 219.429688 131.703125 218.859375 131.316406 218.320312 C 130.933594 217.78125 130.5 217.28125 130.015625 216.824219 C 129.535156 216.367188 129.015625 215.957031 128.457031 215.597656 C 127.898438 215.242188 127.308594 214.9375 126.695312 214.691406 C 126.078125 214.445312 125.441406 214.261719 124.789062 214.136719 C 124.136719 214.011719 123.480469 213.949219 122.816406 213.949219 Z M 122.816406 231.824219 C 122.324219 231.824219 121.839844 231.777344 121.359375 231.679688 C 120.878906 231.585938 120.410156 231.445312 119.960938 231.257812 C 119.507812 231.070312 119.074219 230.839844 118.667969 230.566406 C 118.261719 230.296875 117.882812 229.988281 117.539062 229.640625 C 117.191406 229.296875 116.882812 228.917969 116.609375 228.511719 C 116.335938 228.105469 116.105469 227.675781 115.917969 227.222656 C 115.730469 226.769531 115.589844 226.304688 115.496094 225.824219 C 115.398438 225.34375 115.351562 224.859375 115.351562 224.371094 C 115.351562 223.882812 115.398438 223.394531 115.496094 222.917969 C 115.589844 222.4375 115.730469 221.96875 115.917969 221.519531 C 116.105469 221.066406 116.335938 220.636719 116.609375 220.230469 C 116.882812 219.820312 117.191406 219.445312 117.539062 219.097656 C 117.882812 218.753906 118.261719 218.445312 118.667969 218.171875 C 119.074219 217.902344 119.507812 217.671875 119.960938 217.484375 C 120.410156 217.296875 120.878906 217.15625 121.359375 217.058594 C 121.839844 216.964844 122.324219 216.917969 122.816406 216.917969 C 123.304688 216.917969 123.789062 216.964844 124.273438 217.058594 C 124.753906 217.15625 125.21875 217.296875 125.671875 217.484375 C 126.125 217.671875 126.554688 217.902344 126.960938 218.171875 C 127.371094 218.445312 127.746094 218.753906 128.09375 219.097656 C 128.441406 219.445312 128.75 219.820312 129.019531 220.230469 C 129.292969 220.636719 129.523438 221.066406 129.710938 221.519531 C 129.898438 221.96875 130.039062 222.4375 130.136719 222.917969 C 130.230469 223.394531 130.28125 223.882812 130.28125 224.371094 C 130.28125 224.859375 130.230469 225.34375 130.136719 225.824219 C 130.039062 226.304688 129.898438 226.769531 129.710938 227.222656 C 129.523438 227.675781 129.292969 228.105469 129.019531 228.511719 C 128.75 228.917969 128.441406 229.296875 128.09375 229.640625 C 127.746094 229.988281 127.371094 230.296875 126.960938 230.566406 C 126.554688 230.839844 126.125 231.070312 125.671875 231.257812 C 125.21875 231.445312 124.753906 231.585938 124.273438 231.679688 C 123.789062 231.777344 123.304688 231.824219 122.816406 231.824219 Z M 122.816406 231.824219 " fill-opacity="1" fill-rule="nonzero"/><path fill="rgb(98.81897%, 23.919678%, 23.529053%)" d="M 111.253906 193.851562 L 96.652344 208.4375 L 91.730469 203.519531 C 91.546875 203.339844 91.339844 203.199219 91.101562 203.101562 C 90.863281 203.003906 90.617188 202.957031 90.359375 202.957031 C 90.105469 202.957031 89.859375 203.003906 89.621094 203.101562 C 89.382812 203.203125 89.175781 203.339844 88.992188 203.523438 C 88.8125 203.703125 88.671875 203.910156 88.574219 204.148438 C 88.476562 204.386719 88.425781 204.632812 88.425781 204.886719 C 88.425781 205.144531 88.476562 205.390625 88.574219 205.628906 C 88.671875 205.863281 88.8125 206.074219 88.992188 206.253906 L 95.269531 212.539062 C 95.453125 212.71875 95.660156 212.859375 95.898438 212.957031 C 96.136719 213.054688 96.382812 213.105469 96.640625 213.105469 C 96.894531 213.105469 97.140625 213.054688 97.378906 212.957031 C 97.617188 212.859375 97.824219 212.71875 98.007812 212.539062 L 113.992188 196.597656 C 114.171875 196.417969 114.3125 196.210938 114.410156 195.972656 C 114.507812 195.734375 114.558594 195.488281 114.558594 195.234375 C 114.558594 194.976562 114.507812 194.730469 114.410156 194.492188 C 114.3125 194.257812 114.171875 194.046875 113.992188 193.867188 C 113.808594 193.6875 113.601562 193.546875 113.363281 193.449219 C 113.125 193.351562 112.878906 193.300781 112.621094 193.300781 C 112.367188 193.300781 112.121094 193.351562 111.882812 193.449219 C 111.644531 193.546875 111.4375 193.683594 111.253906 193.867188 Z M 111.253906 193.851562 " fill-opacity="1" fill-rule="nonzero"/><path fill="rgb(5.879211%, 26.669312%, 44.309998%)" d="M 66.386719 186.976562 C 66.617188 186.980469 66.839844 186.933594 67.054688 186.847656 C 67.273438 186.757812 67.460938 186.628906 67.625 186.464844 C 67.789062 186.300781 67.917969 186.113281 68.007812 185.898438 C 68.097656 185.683594 68.140625 185.460938 68.140625 185.226562 L 68.140625 170.925781 L 112.09375 170.925781 C 112.328125 170.925781 112.550781 170.878906 112.765625 170.789062 C 112.980469 170.703125 113.167969 170.574219 113.335938 170.410156 C 113.5 170.246094 113.625 170.058594 113.714844 169.84375 C 113.804688 169.628906 113.847656 169.40625 113.847656 169.175781 C 113.847656 168.941406 113.804688 168.71875 113.714844 168.503906 C 113.625 168.289062 113.5 168.101562 113.335938 167.9375 C 113.167969 167.773438 112.980469 167.644531 112.765625 167.558594 C 112.550781 167.46875 112.328125 167.421875 112.09375 167.421875 L 68.140625 167.421875 L 68.140625 163.429688 C 68.140625 162.777344 68.207031 162.132812 68.335938 161.496094 C 68.460938 160.855469 68.652344 160.238281 68.902344 159.636719 C 69.152344 159.035156 69.457031 158.464844 69.820312 157.921875 C 70.183594 157.382812 70.59375 156.878906 71.054688 156.421875 C 71.515625 155.960938 72.019531 155.546875 72.558594 155.1875 C 73.101562 154.824219 73.671875 154.519531 74.273438 154.269531 C 74.878906 154.019531 75.496094 153.832031 76.136719 153.703125 C 76.777344 153.574219 77.421875 153.511719 78.074219 153.507812 L 87.097656 153.507812 C 87.324219 153.5 87.539062 153.449219 87.746094 153.355469 C 87.953125 153.261719 88.136719 153.136719 88.292969 152.972656 C 88.449219 152.808594 88.570312 152.621094 88.65625 152.414062 C 88.738281 152.203125 88.78125 151.984375 88.78125 151.757812 C 88.78125 151.53125 88.738281 151.3125 88.65625 151.101562 C 88.570312 150.890625 88.449219 150.707031 88.292969 150.542969 C 88.136719 150.378906 87.953125 150.25 87.746094 150.160156 C 87.539062 150.066406 87.324219 150.015625 87.097656 150.003906 L 78.074219 150.003906 C 77.191406 150.007812 76.316406 150.09375 75.453125 150.265625 C 74.585938 150.4375 73.746094 150.695312 72.933594 151.03125 C 72.117188 151.367188 71.34375 151.78125 70.609375 152.273438 C 69.875 152.761719 69.195312 153.316406 68.574219 153.941406 C 67.949219 154.5625 67.390625 155.242188 66.902344 155.972656 C 66.410156 156.707031 65.996094 157.480469 65.660156 158.292969 C 65.320312 159.109375 65.066406 159.945312 64.894531 160.8125 C 64.71875 161.675781 64.632812 162.546875 64.632812 163.429688 L 64.632812 185.238281 C 64.632812 185.46875 64.679688 185.691406 64.769531 185.90625 C 64.859375 186.117188 64.984375 186.304688 65.148438 186.46875 C 65.3125 186.632812 65.503906 186.757812 65.71875 186.847656 C 65.929688 186.933594 66.152344 186.976562 66.386719 186.976562 Z M 66.386719 186.976562 " fill-opacity="1" fill-rule="nonzero"/><g clip-path="url(#id2)"><path fill="rgb(5.879211%, 26.669312%, 44.309998%)" d="M 139.746094 150.003906 L 110.476562 150.003906 C 110.25 150.015625 110.03125 150.066406 109.824219 150.160156 C 109.617188 150.25 109.4375 150.378906 109.277344 150.542969 C 109.121094 150.707031 109 150.890625 108.917969 151.101562 C 108.832031 151.3125 108.789062 151.53125 108.789062 151.757812 C 108.789062 151.984375 108.832031 152.203125 108.917969 152.414062 C 109 152.621094 109.121094 152.808594 109.277344 152.972656 C 109.4375 153.136719 109.617188 153.261719 109.824219 153.355469 C 110.03125 153.449219 110.25 153.5 110.476562 153.507812 L 139.746094 153.507812 C 140.398438 153.511719 141.042969 153.574219 141.683594 153.703125 C 142.324219 153.832031 142.945312 154.019531 143.546875 154.269531 C 144.148438 154.519531 144.71875 154.824219 145.261719 155.1875 C 145.804688 155.546875 146.304688 155.960938 146.765625 156.421875 C 147.226562 156.878906 147.636719 157.382812 148 157.921875 C 148.363281 158.464844 148.667969 159.035156 148.917969 159.636719 C 149.167969 160.238281 149.359375 160.855469 149.484375 161.496094 C 149.613281 162.132812 149.679688 162.777344 149.679688 163.429688 L 149.679688 167.433594 L 123.417969 167.433594 C 123.1875 167.433594 122.960938 167.480469 122.746094 167.566406 C 122.53125 167.65625 122.34375 167.78125 122.179688 167.945312 C 122.015625 168.113281 121.886719 168.300781 121.796875 168.515625 C 121.710938 168.730469 121.664062 168.953125 121.664062 169.183594 C 121.664062 169.417969 121.710938 169.640625 121.796875 169.855469 C 121.886719 170.070312 122.015625 170.257812 122.179688 170.421875 C 122.34375 170.585938 122.53125 170.714844 122.746094 170.800781 C 122.960938 170.890625 123.1875 170.933594 123.417969 170.933594 L 149.679688 170.933594 L 149.679688 181 C 149.679688 181.230469 149.722656 181.453125 149.8125 181.667969 C 149.902344 181.882812 150.027344 182.070312 150.195312 182.234375 C 150.359375 182.398438 150.546875 182.527344 150.761719 182.617188 C 150.976562 182.703125 151.199219 182.75 151.433594 182.75 C 151.664062 182.75 151.890625 182.703125 152.101562 182.617188 C 152.316406 182.527344 152.507812 182.398438 152.671875 182.234375 C 152.835938 182.070312 152.964844 181.882812 153.050781 181.667969 C 153.140625 181.453125 153.183594 181.230469 153.183594 181 L 153.183594 163.429688 C 153.183594 162.546875 153.097656 161.675781 152.925781 160.8125 C 152.753906 159.949219 152.496094 159.109375 152.160156 158.292969 C 151.820312 157.480469 151.40625 156.707031 150.917969 155.976562 C 150.425781 155.242188 149.871094 154.566406 149.246094 153.941406 C 148.621094 153.320312 147.945312 152.761719 147.210938 152.273438 C 146.476562 151.785156 145.703125 151.371094 144.886719 151.03125 C 144.074219 150.695312 143.234375 150.4375 142.367188 150.265625 C 141.503906 150.09375 140.628906 150.007812 139.746094 150.003906 Z M 139.746094 150.003906 " fill-opacity="1" fill-rule="nonzero"/></g><g clip-path="url(#id3)"><path fill="rgb(5.879211%, 26.669312%, 44.309998%)" d="M 151.433594 203.59375 C 151.199219 203.59375 150.976562 203.636719 150.761719 203.726562 C 150.546875 203.816406 150.359375 203.941406 150.195312 204.105469 C 150.027344 204.269531 149.902344 204.457031 149.8125 204.671875 C 149.722656 204.886719 149.679688 205.109375 149.679688 205.34375 L 149.679688 225.035156 C 149.679688 225.6875 149.613281 226.332031 149.484375 226.96875 C 149.359375 227.609375 149.167969 228.226562 148.917969 228.828125 C 148.667969 229.429688 148.363281 230 148 230.542969 C 147.636719 231.082031 147.226562 231.582031 146.765625 232.042969 C 146.304688 232.503906 145.804688 232.914062 145.261719 233.277344 C 144.71875 233.640625 144.148438 233.945312 143.546875 234.195312 C 142.945312 234.445312 142.324219 234.632812 141.683594 234.761719 C 141.042969 234.890625 140.398438 234.953125 139.746094 234.957031 L 109.429688 234.957031 C 109.199219 234.957031 108.972656 235 108.757812 235.089844 C 108.542969 235.175781 108.355469 235.304688 108.191406 235.46875 C 108.027344 235.632812 107.898438 235.820312 107.8125 236.035156 C 107.722656 236.25 107.675781 236.472656 107.675781 236.707031 C 107.675781 236.9375 107.722656 237.160156 107.8125 237.375 C 107.898438 237.589844 108.027344 237.777344 108.191406 237.941406 C 108.355469 238.105469 108.542969 238.234375 108.757812 238.324219 C 108.972656 238.410156 109.199219 238.457031 109.429688 238.457031 L 139.746094 238.457031 C 140.628906 238.453125 141.503906 238.367188 142.367188 238.195312 C 143.234375 238.023438 144.074219 237.765625 144.886719 237.429688 C 145.703125 237.09375 146.476562 236.679688 147.210938 236.1875 C 147.941406 235.699219 148.621094 235.144531 149.246094 234.519531 C 149.867188 233.898438 150.425781 233.21875 150.914062 232.488281 C 151.40625 231.753906 151.820312 230.984375 152.15625 230.167969 C 152.496094 229.355469 152.75 228.515625 152.925781 227.652344 C 153.097656 226.789062 153.183594 225.917969 153.183594 225.035156 L 153.183594 205.34375 C 153.183594 205.109375 153.140625 204.886719 153.050781 204.671875 C 152.964844 204.457031 152.835938 204.269531 152.671875 204.105469 C 152.507812 203.941406 152.316406 203.816406 152.101562 203.726562 C 151.890625 203.636719 151.664062 203.59375 151.433594 203.59375 Z M 151.433594 203.59375 " fill-opacity="1" fill-rule="nonzero"/></g><g clip-path="url(#id4)"><path fill="rgb(5.879211%, 26.669312%, 44.309998%)" d="M 98.652344 234.875 L 88.265625 234.875 C 88.039062 234.882812 87.824219 234.933594 87.617188 235.027344 C 87.410156 235.121094 87.226562 235.25 87.070312 235.414062 C 86.914062 235.574219 86.792969 235.761719 86.707031 235.972656 C 86.621094 236.183594 86.578125 236.402344 86.578125 236.625 C 86.578125 236.851562 86.621094 237.070312 86.707031 237.28125 C 86.792969 237.492188 86.914062 237.679688 87.070312 237.839844 C 87.226562 238.003906 87.410156 238.132812 87.617188 238.226562 C 87.824219 238.320312 88.039062 238.371094 88.265625 238.378906 L 98.652344 238.378906 C 98.878906 238.371094 99.09375 238.320312 99.300781 238.226562 C 99.507812 238.132812 99.691406 238.003906 99.847656 237.839844 C 100.003906 237.679688 100.125 237.492188 100.210938 237.28125 C 100.292969 237.070312 100.335938 236.851562 100.335938 236.625 C 100.335938 236.402344 100.292969 236.183594 100.210938 235.972656 C 100.125 235.761719 100.003906 235.574219 99.847656 235.414062 C 99.691406 235.25 99.507812 235.121094 99.300781 235.027344 C 99.09375 234.933594 98.878906 234.882812 98.652344 234.875 Z M 98.652344 234.875 " fill-opacity="1" fill-rule="nonzero"/></g><g clip-path="url(#id5)"><path fill="rgb(5.879211%, 26.669312%, 44.309998%)" d="M 78.917969 234.875 L 60.21875 234.875 C 59.992188 234.882812 59.773438 234.933594 59.566406 235.027344 C 59.359375 235.121094 59.179688 235.25 59.023438 235.414062 C 58.863281 235.574219 58.742188 235.761719 58.660156 235.972656 C 58.574219 236.183594 58.53125 236.402344 58.53125 236.625 C 58.53125 236.851562 58.574219 237.070312 58.660156 237.28125 C 58.742188 237.492188 58.863281 237.679688 59.023438 237.839844 C 59.179688 238.003906 59.359375 238.132812 59.566406 238.226562 C 59.773438 238.320312 59.992188 238.371094 60.21875 238.378906 L 78.917969 238.378906 C 79.144531 238.371094 79.359375 238.320312 79.566406 238.226562 C 79.773438 238.132812 79.957031 238.003906 80.113281 237.839844 C 80.269531 237.679688 80.390625 237.492188 80.476562 237.28125 C 80.558594 237.070312 80.601562 236.851562 80.601562 236.625 C 80.601562 236.402344 80.558594 236.183594 80.476562 235.972656 C 80.390625 235.761719 80.269531 235.574219 80.113281 235.414062 C 79.957031 235.25 79.773438 235.121094 79.566406 235.027344 C 79.359375 234.933594 79.144531 234.882812 78.917969 234.875 Z M 78.917969 234.875 " fill-opacity="1" fill-rule="nonzero"/></g><g clip-path="url(#id6)"><path fill="rgb(5.879211%, 26.669312%, 44.309998%)" d="M 151.367188 197.371094 C 151.597656 197.371094 151.824219 197.328125 152.039062 197.238281 C 152.253906 197.152344 152.441406 197.023438 152.609375 196.859375 C 152.773438 196.695312 152.898438 196.507812 152.988281 196.292969 C 153.078125 196.078125 153.121094 195.855469 153.121094 195.621094 L 153.121094 189.914062 C 153.113281 189.6875 153.0625 189.472656 152.96875 189.265625 C 152.875 189.058594 152.746094 188.878906 152.585938 188.722656 C 152.421875 188.5625 152.234375 188.445312 152.023438 188.359375 C 151.8125 188.273438 151.59375 188.230469 151.367188 188.230469 C 151.140625 188.230469 150.921875 188.273438 150.710938 188.359375 C 150.5 188.445312 150.316406 188.5625 150.152344 188.722656 C 149.988281 188.878906 149.859375 189.058594 149.765625 189.265625 C 149.671875 189.472656 149.621094 189.6875 149.613281 189.914062 L 149.613281 195.621094 C 149.613281 195.855469 149.660156 196.078125 149.746094 196.292969 C 149.835938 196.507812 149.960938 196.695312 150.128906 196.859375 C 150.292969 197.023438 150.480469 197.152344 150.695312 197.238281 C 150.910156 197.328125 151.132812 197.371094 151.367188 197.371094 Z M 151.367188 197.371094 " fill-opacity="1" fill-rule="nonzero"/></g><g clip-path="url(#id7)"><path fill="rgb(5.879211%, 26.669312%, 44.309998%)" d="M 95.824219 153.441406 L 101.539062 153.441406 C 101.769531 153.441406 101.992188 153.398438 102.207031 153.308594 C 102.421875 153.222656 102.613281 153.09375 102.777344 152.929688 C 102.941406 152.765625 103.066406 152.578125 103.15625 152.363281 C 103.246094 152.148438 103.289062 151.925781 103.289062 151.691406 C 103.289062 151.460938 103.246094 151.238281 103.15625 151.023438 C 103.066406 150.808594 102.941406 150.617188 102.777344 150.453125 C 102.613281 150.289062 102.421875 150.164062 102.207031 150.074219 C 101.992188 149.988281 101.769531 149.941406 101.539062 149.941406 L 95.824219 149.941406 C 95.589844 149.941406 95.367188 149.988281 95.152344 150.074219 C 94.9375 150.164062 94.75 150.289062 94.585938 150.453125 C 94.417969 150.617188 94.292969 150.808594 94.203125 151.023438 C 94.117188 151.238281 94.070312 151.460938 94.070312 151.691406 C 94.070312 151.925781 94.117188 152.148438 94.203125 152.363281 C 94.292969 152.578125 94.417969 152.765625 94.585938 152.929688 C 94.75 153.09375 94.9375 153.222656 95.152344 153.308594 C 95.367188 153.398438 95.589844 153.441406 95.824219 153.441406 Z M 95.824219 153.441406 " fill-opacity="1" fill-rule="nonzero"/></g><path fill="rgb(5.879211%, 26.669312%, 44.309998%)" d="M 79.097656 160.710938 C 79.097656 161.039062 79.035156 161.355469 78.910156 161.660156 C 78.78125 161.964844 78.601562 162.234375 78.371094 162.464844 C 78.136719 162.699219 77.867188 162.878906 77.5625 163.003906 C 77.257812 163.132812 76.941406 163.195312 76.609375 163.195312 C 76.28125 163.195312 75.964844 163.132812 75.660156 163.003906 C 75.355469 162.878906 75.085938 162.699219 74.851562 162.464844 C 74.617188 162.234375 74.4375 161.964844 74.3125 161.660156 C 74.1875 161.355469 74.121094 161.039062 74.121094 160.710938 C 74.121094 160.378906 74.1875 160.0625 74.3125 159.757812 C 74.4375 159.453125 74.617188 159.183594 74.851562 158.953125 C 75.085938 158.71875 75.355469 158.539062 75.660156 158.414062 C 75.964844 158.289062 76.28125 158.222656 76.609375 158.222656 C 76.941406 158.222656 77.257812 158.289062 77.5625 158.414062 C 77.867188 158.539062 78.136719 158.71875 78.371094 158.953125 C 78.601562 159.183594 78.78125 159.453125 78.910156 159.757812 C 79.035156 160.0625 79.097656 160.378906 79.097656 160.710938 Z M 79.097656 160.710938 " fill-opacity="1" fill-rule="nonzero"/><path fill="rgb(5.879211%, 26.669312%, 44.309998%)" d="M 87.117188 160.710938 C 87.117188 161.039062 87.050781 161.355469 86.925781 161.660156 C 86.800781 161.964844 86.621094 162.234375 86.386719 162.464844 C 86.152344 162.699219 85.882812 162.878906 85.578125 163.003906 C 85.273438 163.132812 84.957031 163.195312 84.628906 163.195312 C 84.296875 163.195312 83.980469 163.132812 83.675781 163.003906 C 83.371094 162.878906 83.101562 162.699219 82.867188 162.464844 C 82.636719 162.234375 82.457031 161.964844 82.328125 161.660156 C 82.203125 161.355469 82.140625 161.039062 82.140625 160.710938 C 82.140625 160.378906 82.203125 160.0625 82.328125 159.757812 C 82.457031 159.453125 82.636719 159.183594 82.867188 158.953125 C 83.101562 158.71875 83.371094 158.539062 83.675781 158.414062 C 83.980469 158.289062 84.296875 158.222656 84.628906 158.222656 C 84.957031 158.222656 85.273438 158.289062 85.578125 158.414062 C 85.882812 158.539062 86.152344 158.71875 86.386719 158.953125 C 86.621094 159.183594 86.800781 159.453125 86.925781 159.757812 C 87.050781 160.0625 87.117188 160.378906 87.117188 160.710938 Z M 87.117188 160.710938 " fill-opacity="1" fill-rule="nonzero"/><path fill="rgb(5.879211%, 26.669312%, 44.309998%)" d="M 95.132812 160.710938 C 95.132812 161.039062 95.070312 161.355469 94.941406 161.660156 C 94.816406 161.964844 94.636719 162.234375 94.402344 162.464844 C 94.171875 162.699219 93.902344 162.878906 93.597656 163.003906 C 93.292969 163.132812 92.972656 163.195312 92.644531 163.195312 C 92.316406 163.195312 91.996094 163.132812 91.691406 163.003906 C 91.386719 162.878906 91.117188 162.699219 90.886719 162.464844 C 90.652344 162.234375 90.472656 161.964844 90.347656 161.660156 C 90.21875 161.355469 90.15625 161.039062 90.15625 160.710938 C 90.15625 160.378906 90.21875 160.0625 90.347656 159.757812 C 90.472656 159.453125 90.652344 159.183594 90.886719 158.953125 C 91.117188 158.71875 91.386719 158.539062 91.691406 158.414062 C 91.996094 158.289062 92.316406 158.222656 92.644531 158.222656 C 92.972656 158.222656 93.292969 158.289062 93.597656 158.414062 C 93.902344 158.539062 94.171875 158.71875 94.402344 158.953125 C 94.636719 159.183594 94.816406 159.453125 94.941406 159.757812 C 95.070312 160.0625 95.132812 160.378906 95.132812 160.710938 Z M 95.132812 160.710938 " fill-opacity="1" fill-rule="nonzero"/><g fill="rgb(5.879211%, 26.669312%, 44.309998%)" fill-opacity="1"><g transform="translate(165.290898, 202.546364)"><g><path d="M 11.058594 0.222656 C 12.894531 0.222656 14.488281 -0.222656 15.84375 -1.09375 C 16.976562 -1.816406 17.976562 -2.839844 18.832031 -4.175781 C 19.070312 -4.527344 19.183594 -4.859375 19.183594 -5.214844 C 19.183594 -5.660156 19.015625 -6.046875 18.699219 -6.363281 C 18.347656 -6.679688 17.957031 -6.847656 17.496094 -6.847656 C 16.957031 -6.847656 16.566406 -6.640625 16.308594 -6.253906 C 15.769531 -5.25 15.121094 -4.488281 14.359375 -3.988281 C 13.46875 -3.394531 12.375 -3.097656 11.058594 -3.097656 C 9.441406 -3.097656 8.015625 -3.730469 7.03125 -4.824219 C 6.046875 -5.863281 5.472656 -7.308594 5.472656 -8.921875 L 5.472656 -15.417969 C 5.472656 -16.976562 6.046875 -18.476562 7.03125 -19.535156 C 8.015625 -20.59375 9.441406 -21.242188 11.058594 -21.242188 C 12.394531 -21.242188 13.488281 -20.945312 14.359375 -20.371094 C 15.0625 -19.886719 15.714844 -19.128906 16.308594 -18.089844 C 16.585938 -17.679688 16.976562 -17.476562 17.511719 -17.476562 C 17.976562 -17.476562 18.367188 -17.644531 18.699219 -17.976562 C 19.015625 -18.292969 19.183594 -18.683594 19.183594 -19.109375 C 19.183594 -19.441406 19.070312 -19.796875 18.832031 -20.167969 C 18.03125 -21.445312 17.03125 -22.484375 15.84375 -23.246094 C 14.472656 -24.117188 12.875 -24.542969 11.058594 -24.542969 C 8.589844 -24.542969 6.363281 -23.5625 4.730469 -21.875 C 3.117188 -20.183594 2.171875 -17.902344 2.171875 -15.398438 L 2.171875 -8.941406 C 2.171875 -6.4375 3.117188 -4.15625 4.730469 -2.46875 C 6.363281 -0.777344 8.589844 0.222656 11.058594 0.222656 Z M 11.058594 0.222656 "/></g></g></g><g fill="rgb(5.879211%, 26.669312%, 44.309998%)" fill-opacity="1"><g transform="translate(186.216281, 202.546364)"><g><path d="M 3.394531 0 C 4.285156 0 5.007812 -0.703125 5.007812 -1.613281 L 5.007812 -7.476562 L 12.375 -0.539062 C 12.707031 -0.203125 13.117188 -0.0351562 13.597656 -0.0351562 C 14.027344 -0.0351562 14.398438 -0.203125 14.730469 -0.539062 C 15.027344 -0.835938 15.210938 -1.261719 15.210938 -1.707031 C 15.210938 -2.152344 15.0625 -2.503906 14.769531 -2.78125 L 7.792969 -9.332031 L 13.710938 -14.824219 C 14.0625 -15.136719 14.230469 -15.527344 14.230469 -15.992188 C 14.230469 -16.417969 14.0625 -16.808594 13.730469 -17.140625 C 13.414062 -17.457031 13.023438 -17.625 12.578125 -17.625 C 12.132812 -17.625 11.761719 -17.476562 11.464844 -17.199219 L 5.007812 -11.207031 L 5.027344 -22.707031 C 5.027344 -23.597656 4.339844 -24.320312 3.394531 -24.320312 C 2.96875 -24.320312 2.578125 -24.171875 2.246094 -23.859375 C 1.910156 -23.542969 1.742188 -23.171875 1.742188 -22.707031 L 1.742188 -1.613281 C 1.742188 -0.703125 2.484375 0 3.394531 0 Z M 3.394531 0 "/></g></g></g><g fill="rgb(5.879211%, 26.669312%, 44.309998%)" fill-opacity="1"><g transform="translate(202.299887, 202.546364)"><g><path d="M 9.90625 0.222656 C 11.371094 0.222656 12.746094 0 13.730469 -0.425781 C 14.824219 -0.890625 15.359375 -1.484375 15.359375 -2.246094 C 15.359375 -2.691406 15.175781 -3.136719 14.878906 -3.449219 C 14.546875 -3.785156 14.175781 -3.953125 13.746094 -3.953125 C 13.433594 -3.953125 13.117188 -3.859375 12.765625 -3.65625 C 11.890625 -3.136719 11.148438 -2.929688 9.90625 -2.929688 C 8.589844 -2.929688 7.367188 -3.375 6.382812 -4.191406 C 5.417969 -5.007812 4.730469 -6.085938 4.453125 -7.347656 L 17.402344 -7.347656 C 18.347656 -7.347656 18.996094 -8.015625 18.996094 -8.90625 C 18.980469 -11.335938 17.957031 -13.617188 16.308594 -15.269531 C 14.621094 -16.917969 12.335938 -17.902344 9.90625 -17.902344 C 7.457031 -17.902344 5.140625 -16.902344 3.488281 -15.25 C 1.800781 -13.597656 0.816406 -11.296875 0.816406 -8.832031 C 0.816406 -6.382812 1.800781 -4.082031 3.488281 -2.429688 C 5.140625 -0.777344 7.457031 0.222656 9.90625 0.222656 Z M 4.359375 -10.09375 C 4.582031 -11.371094 5.25 -12.578125 6.234375 -13.414062 C 7.21875 -14.285156 8.535156 -14.769531 9.960938 -14.769531 C 11.371094 -14.769531 12.691406 -14.265625 13.710938 -13.433594 C 14.730469 -12.597656 15.417969 -11.410156 15.640625 -10.09375 Z M 4.359375 -10.09375 "/></g></g></g><g fill="rgb(5.879211%, 26.669312%, 44.309998%)" fill-opacity="1"><g transform="translate(222.112218, 202.546364)"><g><path d="M 9.90625 0.222656 C 11.371094 0.222656 12.746094 0 13.730469 -0.425781 C 14.824219 -0.890625 15.359375 -1.484375 15.359375 -2.246094 C 15.359375 -2.691406 15.175781 -3.136719 14.878906 -3.449219 C 14.546875 -3.785156 14.175781 -3.953125 13.746094 -3.953125 C 13.433594 -3.953125 13.117188 -3.859375 12.765625 -3.65625 C 11.890625 -3.136719 11.148438 -2.929688 9.90625 -2.929688 C 8.589844 -2.929688 7.367188 -3.375 6.382812 -4.191406 C 5.417969 -5.007812 4.730469 -6.085938 4.453125 -7.347656 L 17.402344 -7.347656 C 18.347656 -7.347656 18.996094 -8.015625 18.996094 -8.90625 C 18.980469 -11.335938 17.957031 -13.617188 16.308594 -15.269531 C 14.621094 -16.917969 12.335938 -17.902344 9.90625 -17.902344 C 7.457031 -17.902344 5.140625 -16.902344 3.488281 -15.25 C 1.800781 -13.597656 0.816406 -11.296875 0.816406 -8.832031 C 0.816406 -6.382812 1.800781 -4.082031 3.488281 -2.429688 C 5.140625 -0.777344 7.457031 0.222656 9.90625 0.222656 Z M 4.359375 -10.09375 C 4.582031 -11.371094 5.25 -12.578125 6.234375 -13.414062 C 7.21875 -14.285156 8.535156 -14.769531 9.960938 -14.769531 C 11.371094 -14.769531 12.691406 -14.265625 13.710938 -13.433594 C 14.730469 -12.597656 15.417969 -11.410156 15.640625 -10.09375 Z M 4.359375 -10.09375 "/></g></g></g><g fill="rgb(5.879211%, 26.669312%, 44.309998%)" fill-opacity="1"><g transform="translate(241.924549, 202.546364)"><g><path d="M 3.320312 6.4375 C 4.265625 6.4375 4.917969 5.695312 4.917969 4.730469 L 4.917969 -1.875 C 6.53125 -0.519531 8.496094 0.222656 10.722656 0.222656 C 13.171875 0.222656 15.472656 -0.777344 17.125 -2.429688 C 18.773438 -4.082031 19.757812 -6.363281 19.757812 -8.832031 C 19.757812 -11.296875 18.773438 -13.5625 17.125 -15.25 C 15.472656 -16.902344 13.171875 -17.902344 10.722656 -17.902344 C 8.273438 -17.902344 5.972656 -16.902344 4.324219 -15.25 C 2.632812 -13.5625 1.652344 -11.28125 1.652344 -8.832031 L 1.652344 4.730469 C 1.652344 5.695312 2.410156 6.4375 3.320312 6.4375 Z M 10.722656 -3.0625 C 9.144531 -3.0625 7.679688 -3.671875 6.625 -4.769531 C 5.566406 -5.824219 4.933594 -7.273438 4.933594 -8.832031 C 4.933594 -10.390625 5.566406 -11.835938 6.625 -12.894531 C 7.679688 -13.953125 9.144531 -14.582031 10.722656 -14.582031 C 12.300781 -14.582031 13.765625 -13.953125 14.824219 -12.894531 C 15.878906 -11.835938 16.492188 -10.390625 16.492188 -8.832031 C 16.492188 -7.273438 15.878906 -5.824219 14.824219 -4.769531 C 13.765625 -3.671875 12.300781 -3.0625 10.722656 -3.0625 Z M 10.722656 -3.0625 "/></g></g></g><g fill="rgb(5.879211%, 26.669312%, 44.309998%)" fill-opacity="1"><g transform="translate(262.497465, 202.546364)"><g><path d="M 9.90625 0.222656 C 11.371094 0.222656 12.746094 0 13.730469 -0.425781 C 14.824219 -0.890625 15.359375 -1.484375 15.359375 -2.246094 C 15.359375 -2.691406 15.175781 -3.136719 14.878906 -3.449219 C 14.546875 -3.785156 14.175781 -3.953125 13.746094 -3.953125 C 13.433594 -3.953125 13.117188 -3.859375 12.765625 -3.65625 C 11.890625 -3.136719 11.148438 -2.929688 9.90625 -2.929688 C 8.589844 -2.929688 7.367188 -3.375 6.382812 -4.191406 C 5.417969 -5.007812 4.730469 -6.085938 4.453125 -7.347656 L 17.402344 -7.347656 C 18.347656 -7.347656 18.996094 -8.015625 18.996094 -8.90625 C 18.980469 -11.335938 17.957031 -13.617188 16.308594 -15.269531 C 14.621094 -16.917969 12.335938 -17.902344 9.90625 -17.902344 C 7.457031 -17.902344 5.140625 -16.902344 3.488281 -15.25 C 1.800781 -13.597656 0.816406 -11.296875 0.816406 -8.832031 C 0.816406 -6.382812 1.800781 -4.082031 3.488281 -2.429688 C 5.140625 -0.777344 7.457031 0.222656 9.90625 0.222656 Z M 4.359375 -10.09375 C 4.582031 -11.371094 5.25 -12.578125 6.234375 -13.414062 C 7.21875 -14.285156 8.535156 -14.769531 9.960938 -14.769531 C 11.371094 -14.769531 12.691406 -14.265625 13.710938 -13.433594 C 14.730469 -12.597656 15.417969 -11.410156 15.640625 -10.09375 Z M 4.359375 -10.09375 "/></g></g></g><g fill="rgb(5.879211%, 26.669312%, 44.309998%)" fill-opacity="1"><g transform="translate(282.309796, 202.546364)"><g><path d="M 3.339844 0 C 4.230469 0 4.917969 -0.6875 4.917969 -1.632812 L 4.917969 -8.421875 C 4.917969 -10.109375 5.585938 -11.652344 6.753906 -12.820312 C 7.882812 -13.953125 9.425781 -14.636719 11.074219 -14.636719 L 11.167969 -14.636719 C 12.132812 -14.636719 12.875 -15.324219 12.875 -16.269531 C 12.875 -17.234375 12.261719 -17.902344 11.167969 -17.902344 L 11.074219 -17.902344 C 8.535156 -17.902344 6.179688 -16.882812 4.414062 -15.121094 C 2.691406 -13.359375 1.652344 -10.964844 1.652344 -8.421875 L 1.652344 -1.632812 C 1.652344 -1.167969 1.816406 -0.777344 2.171875 -0.464844 C 2.484375 -0.148438 2.875 0 3.339844 0 Z M 3.339844 0 "/></g></g></g></svg>